<svg width="20" height="20" viewBox="0 0 20 20" fill="none" xmlns="http://www.w3.org/2000/svg">
<g clip-path="url(#clip0_269_1915)">
<path d="M3.33334 5.00008H1.66667V16.6667C1.66667 17.5834 2.41667 18.3334 3.33334 18.3334H15V16.6667H3.33334V5.00008ZM16.6667 1.66675H6.66667C5.75 1.66675 5.00001 2.41675 5.00001 3.33341V13.3334C5.00001 14.2501 5.75 15.0001 6.66667 15.0001H16.6667C17.5833 15.0001 18.3333 14.2501 18.3333 13.3334V3.33341C18.3333 2.41675 17.5833 1.66675 16.6667 1.66675ZM16.6667 13.3334H6.66667V3.33341H16.6667V13.3334ZM10.8333 11.6667H12.5V9.16675H15V7.50008H12.5V5.00008H10.8333V7.50008H8.33334V9.16675H10.8333V11.6667Z" fill="white"/>
</g>
<defs>
<clipPath id="clip0_269_1915">
<rect width="20" height="20" fill="white"/>
</clipPath>
</defs>
</svg>
