<svg width="20" height="20" viewBox="0 0 20 20" fill="none" xmlns="http://www.w3.org/2000/svg">
<g clip-path="url(#clip0_269_1901)">
<path d="M16.6667 3.33341V13.3334H6.66675V3.33341H16.6667ZM16.6667 1.66675H6.66675C5.75008 1.66675 5.00008 2.41675 5.00008 3.33341V13.3334C5.00008 14.2501 5.75008 15.0001 6.66675 15.0001H16.6667C17.5834 15.0001 18.3334 14.2501 18.3334 13.3334V3.33341C18.3334 2.41675 17.5834 1.66675 16.6667 1.66675ZM10.3917 11.6667L7.50008 8.75008L8.66675 7.57508L10.3917 9.30841L14.6667 5.00008L15.8334 6.17508L10.3917 11.6667ZM3.33341 5.00008H1.66675V16.6667C1.66675 17.5834 2.41675 18.3334 3.33341 18.3334H15.0001V16.6667H3.33341V5.00008Z" fill="#00FF85"/>
</g>
<defs>
<clipPath id="clip0_269_1901">
<rect width="20" height="20" fill="white"/>
</clipPath>
</defs>
</svg>
