<svg width="18" height="16" viewBox="0 0 18 16" fill="none" xmlns="http://www.w3.org/2000/svg">
<path d="M12.75 0.5C11.3 0.5 9.90834 1.175 9 2.24167C8.09167 1.175 6.70001 0.5 5.25 0.5C2.68334 0.5 0.666672 2.51667 0.666672 5.08333C0.666672 8.23333 3.50001 10.8 7.79167 14.7L9 15.7917L10.2083 14.6917C14.5 10.8 17.3333 8.23333 17.3333 5.08333C17.3333 2.51667 15.3167 0.5 12.75 0.5ZM9.08334 13.4583L9 13.5417L8.91667 13.4583C4.95 9.86667 2.33334 7.49167 2.33334 5.08333C2.33334 3.41667 3.58334 2.16667 5.25 2.16667C6.53334 2.16667 7.78334 2.99167 8.225 4.13333H9.78334C10.2167 2.99167 11.4667 2.16667 12.75 2.16667C14.4167 2.16667 15.6667 3.41667 15.6667 5.08333C15.6667 7.49167 13.05 9.86667 9.08334 13.4583Z" fill="white"/>
</svg>
