<svg width="30" height="30" viewBox="0 0 30 30" fill="none" xmlns="http://www.w3.org/2000/svg">
<rect width="30" height="30" rx="5" fill="black" fill-opacity="0.6"/>
<g clip-path="url(#clip0_325_2290)">
<path d="M20 18.3998C19.3667 18.3998 18.8 18.6498 18.3667 19.0415L12.425 15.5832C12.4667 15.3915 12.5 15.1998 12.5 14.9998C12.5 14.7998 12.4667 14.6082 12.425 14.4165L18.3 10.9915C18.75 11.4082 19.3417 11.6665 20 11.6665C21.3833 11.6665 22.5 10.5498 22.5 9.1665C22.5 7.78317 21.3833 6.6665 20 6.6665C18.6167 6.6665 17.5 7.78317 17.5 9.1665C17.5 9.3665 17.5333 9.55817 17.575 9.74984L11.7 13.1748C11.25 12.7582 10.6583 12.4998 10 12.4998C8.61667 12.4998 7.5 13.6165 7.5 14.9998C7.5 16.3832 8.61667 17.4998 10 17.4998C10.6583 17.4998 11.25 17.2415 11.7 16.8248L17.6333 20.2915C17.5917 20.4665 17.5667 20.6498 17.5667 20.8332C17.5667 22.1748 18.6583 23.2665 20 23.2665C21.3417 23.2665 22.4333 22.1748 22.4333 20.8332C22.4333 19.4915 21.3417 18.3998 20 18.3998Z" fill="white"/>
</g>
<defs>
<clipPath id="clip0_325_2290">
<rect width="20" height="20" fill="white" transform="translate(5 5)"/>
</clipPath>
</defs>
</svg>
